<svg width="15" height="14" fill="none" xmlns="http://www.w3.org/2000/svg"><path fill-rule="evenodd" clip-rule="evenodd" d="M7.499 1.167a4.667 4.667 0 00-4.667 4.666c0 1.808 1.176 3.561 2.465 4.922A17.178 17.178 0 007.5 12.701 17.178 17.178 0 009.7 10.755c1.289-1.36 2.464-3.114 2.464-4.922A4.667 4.667 0 007.5 1.167zm0 12.25l-.324.485-.002-.001-.004-.003-.013-.009-.048-.033a16.67 16.67 0 01-.793-.594 18.328 18.328 0 01-1.865-1.705c-1.335-1.41-2.784-3.448-2.784-5.724a5.833 5.833 0 0111.666 0c0 2.276-1.449 4.315-2.785 5.724a18.325 18.325 0 01-2.657 2.299l-.048.033-.014.01-.004.002c-.001 0-.002.001-.325-.484zm0 0l.323.485a.584.584 0 01-.647 0l.324-.485z" fill="#fff"/><path fill-rule="evenodd" clip-rule="evenodd" d="M7.499 4.667a1.167 1.167 0 100 2.333 1.167 1.167 0 000-2.333zM5.166 5.833a2.333 2.333 0 114.666 0 2.333 2.333 0 01-4.666 0z" fill="#fff"/></svg>